HIERARCHY
ROOT Hips
{
    OFFSET 0.000000 0.000000 0.000000
    CHANNELS 6 Xposition Yposition Zposition Zrotation Xrotation Yrotation
    JOINT Spine
    {
        OFFSET -0.000000 0.083210 0.000000
        CHANNELS 3 Zrotation Xrotation Yrotation
        JOINT Spine1
        {
            OFFSET -0.000000 0.256334 0.000000
            CHANNELS 3 Zrotation Xrotation Yrotation
            JOINT Neck
            {
                OFFSET -0.000000 0.275576 0.002912
                CHANNELS 3 Zrotation Xrotation Yrotation
                JOINT Head
                {
                    OFFSET -0.000000 0.157287 0.020295
                    CHANNELS 3 Zrotation Xrotation Yrotation
                    End Site
                    {
                        OFFSET -0.000000 0.202951 0.000000
                    }
                }
            }
            JOINT LeftShoulder
            {
                OFFSET 0.041044 0.235234 -0.000041
                CHANNELS 3 Zrotation Xrotation Yrotation
                JOINT LeftArm
                {
                    OFFSET 0.117964 0.000000 0.000000
                    CHANNELS 3 Zrotation Xrotation Yrotation
                    JOINT LeftForeArm
                    {
                        OFFSET 0.291248 0.000000 0.000000
                        CHANNELS 3 Zrotation Xrotation Yrotation
                        JOINT LeftHand
                        {
                            OFFSET 0.245673 0.000000 0.000000
                            CHANNELS 3 Zrotation Xrotation Yrotation
                            End Site
                            {
                                OFFSET 0.152213 0.000000 0.000000
                            }
                        }
                    }
                }
            }
            JOINT RightShoulder
            {
                OFFSET -0.040052 0.235234 -0.000041
                CHANNELS 3 Zrotation Xrotation Yrotation
                JOINT RightArm
                {
                    OFFSET -0.117964 0.000000 0.000000
                    CHANNELS 3 Zrotation Xrotation Yrotation
                    JOINT RightForeArm
                    {
                        OFFSET -0.291248 0.000000 0.000000
                        CHANNELS 3 Zrotation Xrotation Yrotation
                        JOINT RightHand
                        {
                            OFFSET -0.245673 0.000000 0.000000
                            CHANNELS 3 Zrotation Xrotation Yrotation
                            End Site
                            {
                                OFFSET -0.152213 0.000000 0.000000
                            }
                        }
                    }
                }
            }
        }
    }
    JOINT LeftUpLeg
    {
        OFFSET 0.101475 0.000000 0.000000
        CHANNELS 3 Zrotation Xrotation Yrotation
        JOINT LeftLeg
        {
            OFFSET -0.000000 -0.446535 0.000000
            CHANNELS 3 Zrotation Xrotation Yrotation
            JOINT LeftFoot
            {
                OFFSET -0.000000 -0.400037 0.000000
                CHANNELS 3 Zrotation Xrotation Yrotation
                JOINT LeftToeBase
                {
                    OFFSET -0.000000 -0.065959 0.152213
                    CHANNELS 3 Zrotation Xrotation Yrotation
                    End Site
                    {
                        OFFSET -0.000000 0.000000 0.040590
                    }
                }
            }
        }
    }
    JOINT RightUpLeg
    {
        OFFSET -0.101475 0.000000 0.000000
        CHANNELS 3 Zrotation Xrotation Yrotation
        JOINT RightLeg
        {
            OFFSET -0.000000 -0.446535 0.000000
            CHANNELS 3 Zrotation Xrotation Yrotation
            JOINT RightFoot
            {
                OFFSET -0.000000 -0.400037 0.000000
                CHANNELS 3 Zrotation Xrotation Yrotation
                JOINT RightToeBase
                {
                    OFFSET -0.000000 -0.065959 0.152213
                    CHANNELS 3 Zrotation Xrotation Yrotation
                    End Site
                    {
                        OFFSET -0.000000 0.000000 0.040590
                    }
                }
            }
        }
    }
}
MOTION
Frames:    12
Frame Time:    0.008333
0.040744    0.977767    -2.145061    1.315631    -1.368599    -2.695235    -1.484791    -1.444714    -0.698848    -1.660476    4.410669    -0.162997    5.003582    -0.905795    0.319510    0.312701    3.792975    0.906863    16.691225    0.048566    0.534229    -21.991280    1.112164    5.955050    -1.479941    -1.188174    1.568716    8.157719    -1.163327    0.064384    -11.988761    1.088546    4.568794    22.844275    1.488752    -3.777438    -0.816795    -1.462907    -0.657669    0.578554    -1.475285    -1.524472    2.466406    5.358314    0.354775    -1.406216    3.710840    5.682769    -1.435583    -8.233448    -1.103198    -0.096375    0.778801    1.040745    -4.516750    1.198245    8.142352    3.174152    11.564819    6.797773    -0.071920    -12.502604    -12.555148    0.015925    -2.707745    0.323560    
0.040751    0.977736    -2.144677    1.312884    -1.347659    -2.709945    -1.495237    -1.430600    -0.698586    -1.625234    4.386986    -0.164423    4.968316    -0.911694    0.318374    0.339505    3.802857    0.896650    16.664785    0.116909    0.583980    -21.949528    1.035911    5.866767    -1.470423    -1.191363    1.582888    7.885721    -1.161052    0.145105    -12.014911    1.093388    4.553881    22.846914    1.469373    -3.728158    -0.795742    -1.435080    -0.663153    0.583231    -1.447382    -1.516768    2.467312    5.347156    0.333627    -1.410016    3.753372    5.691454    -1.426580    -8.295050    -1.080991    -0.097406    0.763516    1.053384    -4.516386    1.195401    8.301833    3.205192    11.573167    6.734102    -0.092978    -12.543518    -12.631640    0.015393    -2.724152    0.311843    
0.040757    0.977705    -2.144279    1.308618    -1.323320    -2.724847    -1.507559    -1.415454    -0.699403    -1.590258    4.352066    -0.166748    4.951171    -0.903305    0.309887    0.355149    3.801221    0.883588    16.655628    0.213882    0.629333    -21.939148    0.974250    5.775565    -1.525275    -1.198541    1.664399    8.396159    -1.174305    0.028730    -12.053900    1.059343    4.618661    22.890377    1.516413    -3.797052    -0.792411    -1.428372    -0.630660    0.609911    -1.440895    -1.535854    2.468267    5.332057    0.314526    -1.410552    3.798862    5.682283    -1.422349    -8.354948    -1.039239    -0.097130    0.738116    1.052901    -4.510079    1.179368    8.350979    3.209321    11.610123    6.766406    -0.113808    -12.596152    -12.703004    0.015484    -2.746338    0.312460    
0.040763    0.977667    -2.143833    1.303586    -1.303311    -2.741820    -1.517123    -1.409408    -0.692726    -1.562366    4.337925    -0.165537    4.952003    -0.899375    0.293414    0.337254    3.807261    0.869716    16.653791    0.319300    0.673917    -21.926229    0.859855    5.670093    -1.501300    -1.206860    1.662122    8.019551    -1.169249    0.226013    -12.043038    1.094422    4.614065    22.878889    1.565382    -3.748601    -0.797310    -1.441221    -0.637345    0.672198    -1.454496    -1.507710    2.471388    5.329956    0.285583    -1.414489    3.831924    5.706198    -1.420382    -8.414117    -1.020370    -0.097388    0.724700    1.057032    -4.499221    1.161036    8.295761    3.187475    11.670181    6.856706    -0.123922    -12.658280    -12.717661    0.015054    -2.761371    0.302971    
0.040782    0.977615    -2.143346    1.305786    -1.289562    -2.755544    -1.527898    -1.400869    -0.689476    -1.545409    4.330698    -0.165272    4.948235    -0.900051    0.275079    0.325164    3.821656    0.852215    16.646837    0.420048    0.741006    -21.903343    0.748014    5.537602    -1.531992    -1.212710    1.739688    8.073321    -1.189384    0.001727    -12.036535    1.123071    4.608840    22.859156    1.575629    -3.690929    -0.793406    -1.397584    -0.663565    0.860959    -1.413947    -1.560108    2.479280    5.314625    0.205488    -1.450581    3.914644    5.696754    -1.390402    -8.507177    -0.919631    -0.097820    0.715593    1.062631    -4.500989    1.173130    8.342862    3.186554    11.679811    6.846618    -0.131530    -12.698475    -12.734545    0.014756    -2.773426    0.296355    
0.040787    0.977575    -2.142853    1.309527    -1.271723    -2.767265    -1.554297    -1.388210    -0.694969    -1.486732    4.310645    -0.169622    4.888085    -0.902841    0.266477    0.339713    3.841343    0.833308    16.586710    0.511714    0.793589    -21.865562    0.693435    5.446745    -1.523471    -1.246112    1.753598    7.825891    -1.216908    0.086310    -12.076614    1.118722    4.605524    22.884106    1.597763    -3.651653    -0.801218    -1.382898    -0.659678    0.894597    -1.399859    -1.579902    2.475503    5.312504    0.170942    -1.457600    3.957428    5.703106    -1.383425    -8.571933    -0.889759    -0.098819    0.693443    1.075713    -4.504500    1.183777    8.384306    3.189949    11.684260    6.815840    -0.130915    -12.735725    -12.733682    0.014668    -2.786433    0.293920    
0.040786    0.977529    -2.142354    1.308465    -1.249239    -2.781741    -1.572781    -1.375461    -0.706101    -1.448411    4.283568    -0.175022    4.858102    -0.907861    0.260030    0.348282    3.866017    0.821116    16.565800    0.593951    0.820011    -21.874010    0.678920    5.405962    -1.466133    -1.231085    1.742277    7.667706    -1.192902    0.237229    -12.100820    1.079827    4.677190    22.927954    1.677991    -3.702113    -0.823580    -1.404958    -0.644309    0.924423    -1.422389    -1.588714    2.474658    5.303880    0.157285    -1.460058    4.004946    5.708487    -1.380612    -8.643959    -0.871820    -0.100048    0.695168    1.088919    -4.505362    1.202733    8.520679    3.211516    11.655368    6.694929    -0.132999    -12.757132    -12.732117    0.014805    -2.785841    0.296688    
0.040809    0.977479    -2.141817    1.300435    -1.227131    -2.800540    -1.579495    -1.371072    -0.702481    -1.419137    4.272110    -0.174913    4.844939    -0.911038    0.248467    0.342008    3.870160    0.808442    16.563818    0.640250    0.818390    -21.896368    0.648669    5.396735    -1.471320    -1.257472    1.775908    7.691859    -1.222063    0.188724    -12.092527    1.093963    4.670388    22.909187    1.667564    -3.663112    -0.806874    -1.394358    -0.628553    0.921263    -1.411574    -1.593170    2.466748    5.324065    0.184748    -1.434168    3.997267    5.725496    -1.392432    -8.676014    -0.905448    -0.101368    0.667117    1.106201    -4.502336    1.212334    8.563396    3.220469    11.655542    6.667980    -0.135945    -12.792616    -12.726506    0.014449    -2.790088    0.289354    
0.040832    0.977432    -2.141242    1.297027    -1.207695    -2.822172    -1.585997    -1.369569    -0.693898    -1.394692    4.264733    -0.173259    4.825901    -0.908363    0.233028    0.340868    3.878409    0.790368    16.553232    0.657622    0.827158    -21.912489    0.654728    5.383458    -1.469474    -1.295767    1.793545    7.555857    -1.269833    0.044686    -12.092400    1.094158    4.671037    22.915831    1.719487    -3.616259    -0.813310    -1.400834    -0.670047    0.948193    -1.418572    -1.569039    2.465297    5.331705    0.171865    -1.437084    4.028484    5.731477    -1.391393    -8.737421    -0.878136    -0.101122    0.656282    1.104653    -4.505375    1.227825    8.590685    3.226099    11.655527    6.689134    -0.149343    -12.832153    -12.752489    0.014250    -2.798822    0.284922    
0.040851    0.977378    -2.140610    1.298199    -1.189946    -2.835410    -1.597227    -1.366009    -0.695499    -1.360057    4.256443    -0.174953    4.778706    -0.907962    0.225243    0.361415    3.884666    0.773072    16.510544    0.673311    0.820385    -21.912374    0.687879    5.393934    -1.512469    -1.330975    1.800668    7.969871    -1.301772    0.078345    -12.098513    1.107653    4.661874    22.917248    1.698840    -3.582769    -0.831542    -1.392331    -0.638720    1.046323    -1.411742    -1.619681    2.459989    5.344305    0.152627    -1.438913    4.057645    5.734119    -1.386275    -8.803212    -0.852960    -0.101429    0.637971    1.109931    -4.514991    1.256292    8.626862    3.237983    11.641852    6.694670    -0.158016    -12.870356    -12.778666    0.014382    -2.813942    0.286803    
0.040886    0.977327    -2.139986    1.299794    -1.169022    -2.848945    -1.607127    -1.363888    -0.702282    -1.349569    4.244863    -0.177679    4.796072    -0.900081    0.207470    0.329291    3.889917    0.762457    16.528183    0.683564    0.818763    -21.951246    0.674031    5.411948    -1.497022    -1.334591    1.826778    7.849317    -1.317608    -0.099725    -12.100189    1.093868    4.745328    22.941181    1.680655    -3.662778    -0.824609    -1.379485    -0.585516    0.902655    -1.396250    -1.590176    2.452027    5.354596    0.119654    -1.439774    4.082294    5.750036    -1.379793    -8.863129    -0.830181    -0.102317    0.623285    1.121198    -4.524235    1.281066    8.648961    3.245158    11.630650    6.720416    -0.175117    -12.912296    -12.814604    0.014481    -2.822781    0.288339    
0.040919    0.977268    -2.139364    1.294267    -1.147283    -2.864339    -1.608387    -1.360980    -0.697833    -1.324345    4.236820    -0.177360    4.773468    -0.900667    0.190234    0.328605    3.902677    0.741865    16.506178    0.684822    0.818051    -21.970411    0.672498    5.411364    -1.508609    -1.349273    1.847603    7.976005    -1.334038    -0.129833    -12.083945    1.100842    4.741283    22.910807    1.694860    -3.622073    -0.808747    -1.374913    -0.591925    0.940369    -1.391768    -1.549423    2.450869    5.366848    0.092940    -1.439987    4.101236    5.758295    -1.374753    -8.921706    -0.800077    -0.102653    0.587238    1.128745    -4.525701    1.304207    8.679664    3.250713    11.620360    6.750044    -0.188277    -12.958652    -12.856212    0.014104    -2.853653    0.279333    
